<?xml version="1.0" encoding="utf-8"?>
<!-- Generator: Adobe Illustrator 21.0.2, SVG Export Plug-In . SVG Version: 6.00 Build 0)  -->
<svg version="1.1" id="Layer_1" xmlns="http://www.w3.org/2000/svg" xmlns:xlink="http://www.w3.org/1999/xlink" x="0px" y="0px"
	 viewBox="0 0 320 136.3" style="enable-background:new 0 0 320 136.3;" xml:space="preserve">
<style type="text/css">
	.st0{stroke:#231F20;stroke-miterlimit:10;}
	.st1{fill:#231F20;}
</style>
<g>
	<g>
		<path class="st0" d="M90.5,13.3c0,0-17.1,8.7-20.9,24.7c0,0-0.7,9.2,3.7,18c4.3,8.8,9.2,17.7,19.8,19.5c10.7,1.8,34,5.8,60.5-16.7
			c0,0,17.7-10.6,14.2-32.6c0,0-1.3,11.5-8.7,14.3c0,0,9.8-7.8,5.5-25.8c0,0,3.5,15.5-16.2,25.8c0,0,18.2-13.7,13.3-30.7
			c0,0,1,18.4-20.7,29.2c0,0,14.2-7.8,16.8-26.8c0,0-4.4,25.2-46.5,35.7c-9,2.2-15.4,1.2-19.8,0.3c-14.8-2.9-7.8-17.5-7.8-17.5
			s-6,5.5-3.2,14.3c0,0-12.5-7.2,8.8-26.2c0,0-17.5,10.5-14.3,24.6C75.1,43.4,64.2,32.3,90.5,13.3z"/>
		<path class="st0" d="M115.7,9.5c0,0-19.8,7-24.2,18.8c-6.5,17.2,21.4,15.3,37.1,6c15.7-9.3,15-19.4,15-19.4S145.2-0.3,115.7,9.5z
			 M105.4,39.7c13-12.7,28.8-11.5,28.8-11.5C120.2,40.6,105.4,39.7,105.4,39.7z"/>
	</g>
	<g>
		<g>
			<path class="st0" d="M50.7,40.6c0,0,15-2.2,15.5-18C66.6,7.4,49.9,4.3,42.4,4.3c-7.4,0-23.6,0.9-23.6,0.9l-14,71.5
				c0,0,19.8,3.4,36.4,1.7C57,76.9,74.7,52.9,50.7,40.6z M44.2,55.7c-1,8.9-9.6,8.6-9.6,8.6H23.6l3.5-17.2h7.8
				C34.9,47.1,45.1,47.1,44.2,55.7z M38,35.3h-8.7l3.8-16.1h8c0,0,8.1,0.2,7.5,7.4C48,35.4,38,35.3,38,35.3z"/>
			<path class="st0" d="M210.1,50.6c0,0,16.2-4,17.6-22.5c1.4-18.5-17-23.8-24.5-23.8c-7.4,0-23.6,0.9-23.6,0.9l-14,72.9h16.7
				l4.5-23.8h7.4l9,23.8h18.9L210.1,50.6z M199.1,40.1h-8.9l3.8-20.7h8.2c0,0,8.2,0.3,7.7,9.6C209.3,40.1,199.1,40.1,199.1,40.1z"/>
			<polygon class="st0" points="231.5,78.1 248.9,78.1 256.4,39.6 291.6,79.8 292.3,79.8 306.6,4.9 290.4,4.9 282.8,43.3 248.3,3.3 
				246.4,3.3 			"/>
			<polygon class="st0" points="45.1,85 43.6,90.4 18.9,90.4 14.9,106.2 36.8,106.2 35.5,111.2 13.6,111.1 9.3,131 2.2,131.1 
				13.4,85 			"/>
			<polygon class="st0" points="63.6,85 56.8,85 45.8,131.1 52.8,131.1 			"/>
			<polygon class="st0" points="117.4,85 75,85 72.8,90.3 91.1,90.3 81.3,131.1 88.1,131.1 97.8,90.3 115.6,90.3 			"/>
			<polygon class="st0" points="116.9,131.1 123.6,131.1 131.8,97 157.3,132.2 158.9,132.2 169.9,85 162.8,85 155.3,118.6 
				129.6,84.1 128,84.1 			"/>
			<polygon class="st0" points="217,85 185,85 174.1,131.1 205.5,131.1 206.9,125.7 181.8,125.7 185.8,110.4 207.3,110.4 
				209.3,105.3 187,105.3 190.7,90.3 215.5,90.3 			"/>
			<path class="st0" d="M253.2,93l3.6-4.4c0,0-2.8-3.7-13.3-4.5c-10.4-0.8-16.6,6.9-17.3,10.8c-0.8,4.1-0.7,9,7.3,13.6
				c8,4.6,9.6,4.4,11.2,8.3c1.6,4-0.5,9.2-9.6,9.5c-9.1,0.2-14.2-4.2-14.2-4.2l-3.8,4.6c0,0,5.4,5.7,18,5.5
				c12.6-0.2,14.9-6.2,16.2-10.2c1.2-3.8,0.7-9.9-4.6-13.4s-12.5-5.9-13.2-9.6c-0.8-3.7,1.3-7.2,4.2-8.2S246.8,88.8,253.2,93z"/>
			<path class="st0" d="M294.6,93l3.6-4.4c0,0-2.8-3.7-13.3-4.5c-10.4-0.8-16.6,6.9-17.3,10.8c-0.8,4.1-0.7,9,7.3,13.6
				c8,4.6,9.6,4.4,11.2,8.3c1.6,4-0.5,9.2-9.6,9.5s-14.2-4.2-14.2-4.2l-3.8,4.6c0,0,5.4,5.7,18,5.5s14.9-6.2,16.2-10.2
				c1.2-3.8,0.7-9.9-4.6-13.4s-12.5-5.9-13.2-9.6c-0.8-3.7,1.3-7.2,4.2-8.2S288.1,88.8,294.6,93z"/>
		</g>
		<path id="_x38_" class="st1" d="M309.8,117.9c-3.9,0-7.1,3.2-7.1,7.1c0,3.9,3.2,7.1,7.1,7.1s7.1-3.2,7.1-7.1
			C316.9,121.1,313.7,117.9,309.8,117.9z M309.8,131c-3.3,0-6-2.7-6-6c0-3.3,2.7-6,6-6c3.3,0,6,2.7,6,6
			C315.7,128.3,313.1,131,309.8,131z M311.7,125.9c-0.2-0.2-0.5-0.4-0.8-0.6c0.7-0.1,1.1-0.3,1.5-0.7s0.5-0.8,0.5-1.4
			c0-0.4-0.1-0.8-0.3-1.2c-0.2-0.3-0.5-0.6-0.9-0.7c-0.4-0.1-0.9-0.2-1.7-0.2h-3.2v7.5h1.5v-3.1h0.3c0.3,0,0.6,0,0.8,0.1
			c0.2,0.1,0.3,0.2,0.5,0.3c0.1,0.2,0.4,0.5,0.8,1.1l1.1,1.6h1.8l-0.9-1.5C312.2,126.5,311.9,126.1,311.7,125.9z M309.4,124.3h-1.1
			v-1.9h1.2c0.6,0,1,0,1.1,0c0.2,0,0.4,0.1,0.6,0.3c0.1,0.2,0.2,0.4,0.2,0.6c0,0.2,0,0.4-0.2,0.6c-0.1,0.1-0.2,0.3-0.4,0.3
			C310.6,124.2,310.1,124.3,309.4,124.3z"/>
	</g>
</g>
</svg>
